<?xml version="1.0" encoding="UTF-8"?>
<svg version="1.1" xmlns="http://www.w3.org/2000/svg" width="547" height="365" viewBox="0 0 547 365">
<path d="M0 0 C0.4768797769509092 2.6228387732302973 0.4022554856280749 4.372779409446551 -1.0546875 6.64453125 C-4.384884895903383 10.631767591581628 -8.177100907154568 13.962227424030992 -12.12890625 17.31640625 C-14 18.99999999999999 -14 18.99999999999999 -16.5 22 C-20.248021195495994 26.497625434595093 -24.714202862453362 30.091785693344704 -29.19921875 33.8359375 C-42.938138739117505 45.5847521503797 -51.63963306967827 61.06442478445756 -60.906982421875 76.3154296875 C-64.125212981076 81.60304619569858 -67.42886291534347 86.82667840010778 -70.794677734375 92.021240234375 C-75.33210103200861 99.03454718914233 -79.68871270302748 106.15991601735881 -83.99609375 113.31640625 C-87.82193976305103 119.63315395575876 -91.85893994664445 125.65125560899725 -96.2578125 131.58203125 C-98.4478138930948 134.62151748839835 -100.20551127909334 137.71010401167112 -102 141 C-103.39842461494226 143.36555939536962 -104.81867213365774 145.71740872530674 -106.23828125 148.0703125 C-107.5353889713225 150.22736525164493 -108.82385784380807 152.3884707769723 -110.10546875 154.5546875 C-114.30188561777891 161.62911724248033 -118.62995576563071 168.5614817122199 -123.23828125 175.37890625 C-125.08645436973904 178.1286272330264 -126.84788360291446 180.91837747819795 -128.5859375 183.73828125 C-130.91238336278167 187.45930930124473 -133.30841158405553 191.13639631856446 -135.702880859375 194.81396484375 C-137.56910859873233 197.69861855181162 -139.36758644947622 200.60083254265962 -141.0625 203.58984375 C-144.61326105229512 209.83946955373722 -148.44912733709748 215.94185968417065 -152.6875 221.75 C-154.59788770697935 224.43486920980882 -156.24929065146148 227.1242257504206 -157.84765625 230 C-160.4011473768128 234.43182188789197 -163.23620252254557 238.69753375883664 -166 243 C-169.33201841651464 248.19360261878478 -172.65580123920938 253.3849554523798 -175.8125 258.6875 C-182.08208607443248 269.19778753061365 -188.62059322953553 279.52538786257327 -195.444580078125 289.683837890625 C-204.02312290834146 302.4603547336388 -204.02312290834146 302.4603547336388 -207.56640625 308.8046875 C-208.0394921875 309.529140625 -208.512578125 310.25359375 -209 311 C-209.65999999999997 311 -210.32 311 -211 311 C-211.12374999999997 311.28875 -211.12374999999997 311.28875 -211.75 312.75 C-214.64477825008305 317.96060085014955 -218.93067219147014 320.23491210443825 -224 323 C-224.99 323.66 -225.98000000000002 324.32 -227 325 C-238.3309078812277 328.79537109298127 -250.76837681327794 329.33440894801527 -262 325 C-263.6887277540844 324.03772335040134 -265.3544665791757 323.03440685357754 -267 322 C-269.11635487904147 320.797160328241 -271.2419269905431 319.61043682111466 -273.375 318.4375 C-274.45523437500003 317.8380859375 -275.53546875 317.238671875 -276.6484375 316.62109375 C-285.90516169640455 312.14377377155256 -297.54934423846913 310.3959535452702 -307.5625 313.1875 C-310.59773385756034 314.266136825414 -312.5470028658111 315.3786942917154 -315.25 317.25 C-318 319 -318 319 -321.375 318.75 C-321.808125 318.62625 -321.808125 318.62625 -324 318 C-324.8523876507059 315.6310944431302 -325.23624731206843 314.503778514776 -324.14453125 312.17578125 C-323.7049609375 311.5608984375 -323.265390625 310.946015625 -322.8125 310.3125 C-317.9294383444269 302.93334816853337 -314.24468896005334 296.0357286418731 -316 287 C-318.5055718782701 279.0646827983783 -321.9493802429339 271.5358760700929 -326.375 264.5 C-331.02163614990195 256.32789996156646 -331.1915829806767 245.44025310957 -328.9375 236.4375 C-328.32317740682487 234.61407884843928 -327.6731990688693 232.8025148981681 -327 231 C-326.5551322425324 229.67389955170793 -326.11260055347225 228.34701409625876 -325.671875 227.01953125 C-323.1775092736415 219.72566759027902 -320.8349817629001 213.3045288753637 -315 208 C-314.34000000000003 208 -313.68 208 -313 208 C-312.814375 207.4225 -312.62874999999997 206.845 -312.4375 206.25 C-310.71062362667203 203.54706306783447 -308.70605244177295 202.61350864203433 -305.945556640625 201.0927734375 C-302.8739678294528 199.36753419558673 -299.9472587425682 197.42755984726 -297 195.5 C-293.50184418310903 193.21214362868514 -290.00365704519646 190.97532154307342 -286.359375 188.92578125 C-283.5214065379782 187.29889932932934 -280.89748192571085 185.60007746012562 -278.25 183.6875 C-271.5347899746687 178.928769982049 -264.68755532282535 174.4058396633531 -257.4375 170.5 C-254.23133417797283 168.7640336730823 -251.31964218946206 166.83655517286934 -248.375 164.6875 C-243.60535185196193 161.2560446709256 -238.59931289869894 158.54620799334052 -233.35302734375 155.928466796875 C-229.0349797418869 153.72813294713478 -225.6772222526015 151.156955917412 -222 148 C-220.44372184072392 146.97837869221718 -218.8611758134233 145.99514371750172 -217.25 145.0625 C-216.38375000000002 144.554609375 -215.51749999999998 144.04671875 -214.625 143.5234375 C-213.75875000000002 143.020703125 -212.89249999999998 142.51796875 -212 142 C-206.20257397737953 138.58638401957546 -200.51094302379653 135.04710607517055 -194.875 131.375 C-190.62659029399833 128.6073543922204 -186.38816541867664 126.10276274347586 -181.79296875 123.95703125 C-178.94077604070299 122.43461901954737 -176.48617024794453 120.42734003655954 -173.94140625 118.4453125 C-171.10499425708394 116.33369793786932 -168.09088640772086 114.71715911540048 -165 113 C-163.948125 112.2575 -162.89625 111.515 -161.8125 110.75 C-159 109 -159 109 -155 109 C-154.66999999999996 108.01 -154.34000000000003 107.02 -154 106 C-152.560546875 104.82080078125003 -152.560546875 104.82080078125003 -150.71875 103.6953125 C-150.38250610351565 103.48741088867187 -150.38250610351565 103.48741088867187 -148.680908203125 102.435302734375 C-148.32105834960936 102.21910278320313 -148.32105834960936 102.21910278320313 -146.5 101.125 C-145.76676513671873 100.67519775390625 -145.03353027343746 100.2253955078125 -144.278076171875 99.761962890625 C-140.6695198096911 97.5613311443281 -137.04046818224322 95.43087885917319 -133.3125 93.4375 C-129.5530624697248 91.41814498373789 -126.10327434388518 89.02417968547402 -122.625 86.5625 C-117.87217325663892 83.20106259933 -113.03403419098095 80.29512708697693 -107.87890625 77.59375 C-103.85826618830896 75.36794111917239 -100.05288943410068 72.84589516134119 -96.21142578125 70.327392578125 C-91.7371372420771 67.41632788305209 -87.154186614438 64.82487541233874 -82.40234375 62.38671875 C-80 61 -80 61 -77.76953125 59.1640625 C-74.00308084613096 56.22102508992461 -69.91404729230703 54.018265462146786 -65.75 51.6875 C-59.09027191791159 47.8885834999239 -52.76231642461073 44.09919270908015 -47 39 C-46.592656250000005 38.6403515625 -46.592656250000005 38.6403515625 -44.53125 36.8203125 C-42.81701708451294 35.28679690994079 -41.11108521556264 33.743945607426504 -39.4140625 32.19140625 C-37.24899576858064 30.22603013943973 -35.04290400763466 28.32774586747417 -32.8125 26.4375 C-29.625602892214715 23.660797569454388 -26.928294390597387 20.679847229935376 -24.19921875 17.4609375 C-21.14531159554531 14.043599121125382 -17.924552858373318 10.805700717689103 -14.6875 7.5625 C-14.375788574218745 7.248572998046875 -14.375788574218745 7.248572998046875 -12.79833984375 5.659912109375 C-12.503547363281314 5.366046142578124 -12.503547363281314 5.366046142578124 -11.01171875 3.87890625 C-10.745970458984402 3.613721923828125 -10.745970458984402 3.613721923828125 -9.401123046875 2.271728515625 C-6.426801676675723 -0.4279125398495349 -3.876566615347656 -0.0842731872901652 0 0 Z M-82.78125 70.94140625 C-83.53623779296879 71.3569677734375 -84.29122558593747 71.772529296875 -85.069091796875 72.20068359375 C-85.87129150390626 72.6500830078125 -86.67349121093753 73.099482421875 -87.5 73.5625 C-88.31573486328125 74.0170556640625 -89.1314697265625 74.471611328125 -89.971923828125 74.93994140625 C-95.18579501734251 77.88120592150851 -100.14414192262586 81.01622552777941 -104.98046875 84.55078125 C-107.2929264606214 86.21020448141303 -109.67490189254318 87.60734024588646 -112.1640625 88.98046875 C-117.73989722408311 92.07683654358658 -123.17236807670895 95.4020028717403 -128.4375 99 C-131.70005368906902 101.20956017037477 -135.02431832884736 103.14372494892544 -138.5 105 C-142.69785091758433 107.24428040746197 -146.63140846483617 109.68349379886837 -150.55859375 112.3671875 C-157.30711802749772 116.88060053679047 -164.31468111006188 121.01243566775946 -171.3125 125.125 C-175.16037027563596 127.41376562586453 -178.67343685441966 129.9713836968486 -182.21484375 132.703125 C-184.6546891003332 134.47561658930113 -187.29375633831114 135.67340996976037 -190 137 C-192.67191940228264 138.64561923451845 -195.30661725688554 140.34462154067836 -197.9453125 142.04296875 C-205.2781581493041 146.7408660266002 -212.70668882519857 151.27345835659486 -220.25 155.625 C-223.77564575012468 157.66275855282436 -227.2013942774945 159.76405292510725 -230.5625 162.0625 C-233.79784658997698 164.2721479427923 -237.09905141657032 166.1683685376093 -240.5625 168 C-244.67883921915683 170.19538091688364 -248.29568480608873 172.6120482703501 -251.95703125 175.48828125 C-255.05594095864922 177.781355929249 -258.36849722329555 179.67796893639536 -261.703125 181.60546875 C-263.91930679100255 182.95100769453728 -265.9344219628195 184.4369749698036 -268 186 C-269.6205821440026 186.92604693943005 -271.24213512972875 187.85048703801243 -272.87109375 188.76171875 C-276.43495579929544 190.83464401537 -279.88467534905806 193.0862739709557 -283.3515625 195.31640625 C-285.87710744549037 196.9218780368825 -288.4332734632185 198.46149874252708 -291 200 C-293.4071799400637 201.48234196951645 -295.7991136383784 202.98760487445904 -298.1875 204.5 C-298.81591796875 204.8905859375 -299.4443359375 205.281171875 -300.091796875 205.68359375 C-303.11599519298267 207.60484915201252 -304.9854619370213 208.97819290553193 -307 212 C-299.3368052968788 217.7289748862276 -291.2154423820101 222.33971061680683 -282.865234375 226.95849609375 C-273.14075004160156 232.38842412598532 -273.14075004160156 232.38842412598532 -268.9140625 235.5703125 C-266.4306227796403 237.42528992377888 -263.7922661871149 238.65971223018485 -261 240 C-259.96875 240.5775 -258.9375 241.155 -257.875 241.75 C-255 243 -255 243 -253.16015625 242.875 C-250.02395695217035 241.60464079075254 -248.02277154259707 239.55671784021584 -245.5625 237.25 C-244.63566406249998 236.38890625 -243.70882812499997 235.5278125 -242.75390625 234.640625 C-240.13278992137015 232.12732764091663 -237.5576794252347 229.57769256627725 -235 227 C-231.33333333333331 223.33333333333331 -227.66666666666674 219.6666666666667 -224 216 C-223.17757812499997 215.1646875 -222.35515625 214.329375 -221.5078125 213.46875 C-217.97882345777464 209.99472963444484 -214.24622106482582 206.76381024861445 -210.5234375 203.5 C-208.11190913000064 201.11086972631645 -206.69259964365943 198.9097499492123 -205 196 C-203.2734375 194.29687500000003 -203.2734375 194.29687500000003 -201.375 192.75 C-198.2388290179651 190.10871104448802 -195.31247355890997 187.36161840607082 -192.4375 184.4375 C-189.3172968631519 181.274333653006 -186.14138068439797 178.2974932872347 -182.703125 175.484375 C-177.15652035315304 170.6501782894453 -172.30112012375685 165.0422711685556 -167.34765625 159.615234375 C-163.9471412372153 155.93445713588687 -160.44680257908846 152.57842037507243 -156.60302734375 149.364990234375 C-154.2633744517749 147.372757624105 -152.14722892608097 145.1977519596358 -150 143 C-148.51181075403736 141.50902388279022 -147.02205480326495 140.01961086096452 -145.53125 138.53125 C-144.7126953125 137.7126953125 -143.89414062499998 136.894140625 -143.05078125 136.05078125 C-141.787109375 134.78710937499997 -141.787109375 134.78710937499997 -135.46875 128.46875 C-135.079453125 128.0781640625 -135.079453125 128.0781640625 -133.109375 126.1015625 C-131.85959895695476 124.85641525711415 -130.60209009893538 123.61882462748483 -129.328125 122.3984375 C-127.0714120681431 120.23251186999943 -126.01349572889706 119.04048718669128 -125 116 C-123.67697547400707 115.313102390568 -122.34108896782993 114.6509244215629 -121 114 C-115.06129936052264 109.10716547620396 -109.54316472612231 103.81256266686489 -104.6328125 97.88671875 C-101.1444615644067 93.8559208985848 -97.2367451020607 90.27180738624342 -93.2919921875 86.69873046875 C-79.67874363782482 74.35748727564966 -79.67874363782482 74.35748727564966 -77 69 C-79.48078098840966 69 -80.611459726607 69.74673617885578 -82.78125 70.94140625 Z M-81.375 84.6875 C-81.95249999999999 85.21794921875 -82.52999999999997 85.7483984375 -83.125 86.294921875 C-86.39942642844494 89.3413345909619 -89.23498260126587 92.47306669583692 -92 96 C-92.90750000000003 96.721875 -93.815 97.44375 -94.75 98.1875 C-95.12125000000003 98.48656249999999 -95.12125000000003 98.48656249999999 -97 100 C-97 100.66 -97 101.32 -97 102 C-97.99000000000001 102.33 -98.98000000000002 102.66 -100 103 C-100 103.66 -100 104.32 -100 105 C-100.55687499999999 105.226875 -101.11374999999998 105.45375 -101.6875 105.6875 C-104.64920913980416 107.3684700523213 -106.6186402437113 109.56626429599235 -109 112 C-109.81339843750004 112.80179687500001 -110.62679687499997 113.60359375 -111.46484375 114.4296875 C-118.94138029809932 121.82354512892607 -118.94138029809932 121.82354512892607 -122.125 125.6875 C-124.79982425704776 128.90482382467434 -127.81325096518509 131.5442816554135 -130.99609375 134.25 C-133.53041144543033 136.46320531686706 -135.85735286420186 138.84414778606902 -138.2109375 141.24609375 C-140.11315582029573 143.11093223430737 -142.09762375452357 144.83505394814276 -144.125 146.5625 C-146.5222312929506 148.62319689990179 -148.65354454640539 150.65436191552726 -150.625 153.125 C-152.72101602898994 155.66228256140886 -154.8486098442674 157.55754422711374 -157.41015625 159.59765625 C-159.23453391968815 161.20687389967583 -160.74362876425926 162.9537680278637 -162.3125 164.8125 C-165.63940763857983 168.74362180612457 -169.33510517068964 172.032091478608 -173.27734375 175.3359375 C-173.8458203125 175.885078125 -174.414296875 176.43421875 -175 177 C-175 177.66 -175 178.32 -175 179 C-175.53625 179.226875 -176.0725 179.45375 -176.625 179.6875 C-182.21073051326755 182.77435107312155 -186.11806617577406 187.15619346431794 -190.20703125 191.94921875 C-192.98317100142015 195.1245419950884 -195.98964478108212 198.04932142639103 -199 201 C-201.58321315468498 203.57468769872895 -204.15640986847274 206.1584324098754 -206.71875 208.75390625 C-207.63656249999997 209.6807421875 -208.554375 210.607578125 -209.5 211.5625 C-210.41781249999997 212.4919140625 -211.335625 213.421328125 -212.28125 214.37890625 C-214.7540126120379 216.76284836591586 -217.29768789132856 218.8855433078861 -220 221 C-222.47553684541515 223.35477895051682 -224.73913507565783 225.6581769956896 -226.8125 228.375 C-228.7186058135369 230.66232697624432 -230.5550787723322 232.39803315115094 -232.8125 234.3125 C-236.41483660811036 237.3829027912118 -239.5030709110448 240.68851882260884 -242.5546875 244.30078125 C-243.99999999999994 245.99999999999994 -243.99999999999994 245.99999999999994 -246 248 C-245.7351108249739 251.84089303787857 -243.5267527837632 254.2435424177129 -241 257 C-240.34000000000003 257 -239.68 257 -239 257 C-238.9690625 257.268125 -238.9690625 257.268125 -238.8125 258.625 C-237.599647358882 262.17026156634483 -235.55389074120046 264.25923920456535 -233 267 C-232.34000000000003 267 -231.68 267 -231 267 C-230.7525 267.53625 -230.505 268.0725 -230.25 268.625 C-228.69347463412942 271.58239819515416 -226.96564326801098 274.2972405064849 -225 277 C-224.34000000000003 277 -223.68 277 -223 277 C-221.99999999999994 279.0000000000001 -221.00000000000006 280.9999999999999 -220 283 C-219.34000000000003 283 -218.68 283 -218 283 C-217.71125 283.598125 -217.4225 284.19624999999996 -217.125 284.8125 C-216 287 -216 287 -214 290 C-213.34000000000003 290 -212.68 290 -212 290 C-211.67000000000002 290.99 -211.34000000000003 291.98 -211 293 C-208.6875 293.3125 -208.6875 293.3125 -206 293 C-204.53295898437506 290.7827148437501 -204.53295898437506 290.7827148437501 -203 288 C-201.93913171069028 286.3809283148306 -200.86708652096854 284.76913618607864 -199.78515625 283.1640625 C-199.18123046875002 282.264296875 -198.57730468750003 281.36453125 -197.955078125 280.4375 C-196.69819532593942 278.5696865524796 -195.4403896921724 276.7024937491404 -194.181640625 274.8359375 C-190.92348004050177 269.97819008967247 -187.83393016563377 265.11629003057374 -185 260 C-181.80748956920058 254.56475099156398 -178.52532315169844 249.22720329389773 -175 244 C-173.9995936247999 242.3335772258407 -172.99963789371014 240.66688387695018 -172 239 C-170.9428337881858 237.32994502234922 -169.88004349053097 235.66344068833328 -168.8125 234 C-165.47313426487688 228.7694987222492 -162.21974079695377 223.48973160893038 -158.9765625 218.19921875 C-156.5748259208391 214.31182298254387 -154.11315453261608 210.46482268666313 -151.6484375 206.6171875 C-150.05195264881712 204.08248406328784 -148.51979602214737 201.51874086301223 -147 198.9375 C-144.96697571649088 195.51488199079444 -142.8075630471846 192.2437454237836 -140.5 189 C-137.69738500358415 185.05557889393327 -135.16303423901786 181.03006204667142 -132.70703125 176.86328125 C-130.642381278215 173.40014983279545 -128.51437630577294 169.97982048061365 -126.375 166.5625 C-125.95532958984376 165.89186523437502 -125.53565917968751 165.22123046874998 -125.103271484375 164.5302734375 C-122.18937323944351 159.88146085576642 -119.25750206429603 155.2441571381484 -116.322509765625 150.608642578125 C-116.06304565429684 150.19884155273436 -116.06304565429684 150.19884155273436 -114.75 148.125 C-114.23300537109378 147.30862060546875 -113.7160107421875 146.4922412109375 -113.183349609375 145.651123046875 C-110.71970037534493 141.7527721698373 -108.28149153576203 137.84695107500892 -105.9375 133.875 C-103.28900675228306 129.39834327155805 -100.46053548903183 125.04688494547304 -97.625 120.6875 C-94.14855007502894 115.33660986846446 -90.68501263615445 109.97968532234339 -87.3125 104.5625 C-86.6692578125 103.5325390625 -86.02601562500001 102.502578125 -85.36328125 101.44140625 C-84 99 -84 99 -84 97 C-83.34000000000003 97 -82.68 97 -82 97 C-81.6016796875 96.25234375 -81.20335937499999 95.5046875 -80.79296875 94.734375 C-80.26316406249998 93.74953125 -79.73335937499996 92.76468750000001 -79.1875 91.75 C-78.92646484375001 91.26273437500001 -78.92646484375001 91.26273437500001 -77.60546875 88.796875 C-76 86.00000000000006 -76 86.00000000000006 -74.30078125 83.828125 C-73 82 -73 82 -73 79 C-76.56801095738382 79 -78.8820432836215 82.34554837106732 -81.375 84.6875 Z M-315.74609375 221.7265625 C-322.11704279713763 233.2776289966794 -324.5065981153057 245.37785711143732 -320.98828125 258.2421875 C-319.7917865403368 261.5810225396136 -318.0629871417189 264.1243209539676 -316 267 C-312.0439402273189 276.3938437511301 -309.70281188994124 285.98239388151586 -308 296 C-304.43539089890714 294.75907806037037 -302.1825865963109 293.51967914332204 -299.625 290.75 C-297.3463490063685 288.3579096711877 -295.0564927593917 286.15469698918827 -292.5 284.0625 C-290.0313417458641 281.9862112697003 -287.90352346004437 279.8305602375824 -285.8125 277.375 C-279.07572426206724 269.4699095507591 -271.5944472773475 262.0385395664587 -263.5234375 255.5 C-261.81243915864906 253.81532471005448 -260.95324404793143 252.18962989227816 -260 250 C-263.76246955174764 245.62090349393816 -268.58099917187633 243.06765666569194 -273.5 240.1875 C-274.39912109375 239.65487548828125 -275.2982421875 239.1222509765625 -276.224609375 238.573486328125 C-278.81269530111956 237.04257480973192 -281.4053893962978 235.5198204507123 -284 234 C-284.631640625 233.62875 -285.26328125 233.2575 -285.9140625 232.875 C-288.3560354882561 231.43990686946088 -290.80241437198214 230.01359031866184 -293.2578125 228.6015625 C-295.24933655845336 227.4384216681398 -297.2209724724294 226.24101711173307 -299.1796875 225.0234375 C-300.234140625 224.376328125 -301.28859375 223.72921875 -302.375 223.0625 C-303.310859375 222.4759765625 -304.24671875 221.889453125 -305.2109375 221.28515625 C-309.09678047099294 219.494620763366 -312.4784110019207 218.49543101308487 -315.74609375 221.7265625 Z M-260 260 C-260.61875 260.94875 -261.2375 261.8975 -261.875 262.875 C-264.3654298577382 266.53739684961505 -267.1648351560826 268.52508728307595 -270.69140625 271.13671875 C-273.671016295615 273.5415816802172 -275.99949983574686 276.28828321333725 -278.4453125 279.21875 C-280.4079236745574 281.4673698381864 -282.63184405846994 283.19272309725335 -285 285 C-286.67953610026836 286.6536970833411 -288.34408954267496 288.3226460979039 -290 290 C-290.9641051296678 290.9655818053259 -291.9289611740365 291.93041437314747 -292.89453125 292.89453125 C-293.37470703125 293.37470703125 -293.8548828125 293.8548828125 -294.349609375 294.349609375 C-296.56640625 296.56640625 -298.783203125 298.783203125 -301 301 C-300.34000000000003 302.32 -299.68 303.64 -299 305 C-298.368359375 304.9419921875 -297.73671875 304.883984375 -297.0859375 304.82421875 C-285.27180519753125 304.22840516125876 -275.8102222717205 308.79485565380236 -265.9375 314.6875 C-259.0795067742876 318.76085242273564 -253.05455808318004 320.59894316598275 -245 321 C-244.26394531250003 321.06703125 -243.527890625 321.1340625 -242.76953125 321.203125 C-234.12428630489376 321.68629238216164 -226.47800673981072 318.4922231054917 -220 313 C-220 312.34000000000003 -220 311.68 -220 311 C-219.38125000000002 310.71125 -218.7625 310.4225 -218.125 310.125 C-216 309 -216 309 -214 307 C-213.1899193877179 303.1116130610459 -213.26665587461684 301.1643625389092 -215.40234375 297.7734375 C-217.52513199789286 295.1080142194147 -219.74515427744012 292.554786076891 -222 290 C-222.95000428031165 288.8726394039594 -223.89648266126704 287.74230037370296 -224.83984375 286.609375 C-232.2703137240485 277.7057184785662 -232.2703137240485 277.7057184785662 -235.140625 274.9296875 C-237.20371725068856 272.788579155798 -238.49187951143512 270.55553576260735 -240 268 C-241.27494648478148 266.44754976288414 -242.58863276430117 264.9261730528346 -243.9375 263.4375 C-244.27201171875004 263.06560546875 -244.27201171875004 263.06560546875 -245.96484375 261.18359375 C-247.93381007323148 259.07101759897046 -249.90870305312455 256.99192646559845 -252 255 C-254.77238508776185 255 -257.90480884512937 258.2267869958779 -260 260 Z " fill="#AEBFD0" transform="translate(535,12)"/>
<path d="M0 0 C11.100317409049097 0.5678520421880648 22.17939471369513 0.6734102670002358 33.2908935546875 0.674407958984375 C34.1839632576704 0.6745492698252065 35.0770329606533 0.6746905806660379 35.99716538190842 0.6748361736536026 C41.80901574791936 0.6739402776614156 47.620837897354946 0.6649460604866704 53.43267750740051 0.6543592214584351 C58.74798752611542 0.6458358199499799 64.06330092246958 0.6433160597264305 69.37861633300781 0.640106201171875 C78.56283808009891 0.6338439535412022 87.74705072342198 0.6241281751217116 96.93126678466797 0.6122112274169922 C110.2129654488241 0.5951582226973642 123.49466191005453 0.5856601752495862 136.77636912465096 0.5783324912190437 C158.33535145808037 0.5664212163650291 179.89433024759734 0.5514816726436607 201.45330810546875 0.5331878662109375 C202.74043206483123 0.5320977438241243 204.02755602419376 0.5310076214373112 205.3536837399006 0.5298844650387764 C223.66820939791785 0.5142337714564746 241.98273091830117 0.49562745925555873 260.29725256562233 0.47588659077882767 C261.5904403468966 0.47449327729640345 262.883628128171 0.4730999638140361 264.21600341796875 0.4716644287109375 C265.50760764449836 0.4702708988636459 266.7992118710279 0.4688773690164112 268.1299556195736 0.4674416109919548 C289.63822170304803 0.4444366178086625 311.1464850790382 0.42910446843308137 332.65476155281067 0.4201050400733948 C345.9128059263614 0.41424662629538034 359.17081289510736 0.4018585034529565 372.42884251475334 0.38113225251436234 C381.4935971182008 0.3674621067148678 390.5583385896204 0.36093334191718895 399.62310341000557 0.3601221367716789 C404.8569469691524 0.35941589765479875 410.09073464290447 0.35536703620522303 415.32456398010254 0.34265899658203125 C420.10902241514844 0.331102141260601 424.8933935365299 0.3286383096319696 429.6778625547886 0.3336011841893196 C431.41409774038857 0.33375325800119526 433.1503370922664 0.3304717717326753 434.88655838370323 0.323524110019207 C437.2353125510395 0.31460596244886574 439.583736658305 0.31785732523383103 441.93249130249023 0.3243093490600586 C443.2403112196922 0.3230078357457842 444.5481311368942 0.3217063224315666 445.8955819606781 0.32036536931991577 C449.03094482421875 0.5676116943359375 449.03094482421875 0.5676116943359375 452.03094482421875 2.5676116943359375 C452.03094482421875 3.8876116943359307 452.03094482421875 5.207611694335924 452.03094482421875 6.5676116943359375 C439.57355486069764 8.457482828725631 427.15981679398726 8.709872332826876 414.58465576171875 8.573471069335938 C413.10590496114816 8.56164842510276 411.6271499998543 8.550337124184978 410.1483917236328 8.53948974609375 C406.99581087494937 8.515360501646967 403.8432856573491 8.487839463124715 400.69075775146484 8.45758056640625 C395.68564630316945 8.40970732032065 390.68048816084445 8.370572606938083 385.67529296875 8.332626342773438 C374.1441334464963 8.243920856634134 362.6130736459063 8.14428472400732 351.0820083618164 8.044181823730469 C340.5115770400688 7.952490307599703 329.9411403097864 7.863246257479318 319.3706133365631 7.783226490020752 C314.4158001112816 7.745396987757545 309.4610757190486 7.702141520940131 304.50634813308716 7.654441833496094 C301.39926056723516 7.625709764442149 298.2921481207734 7.601858294360511 295.1850109100342 7.579198837280273 C293.7674607033404 7.567907024862166 292.3499238341284 7.554712942183926 290.9324131011963 7.539239883422852 C282.3183727907513 7.4464772621429915 273.8003099236866 7.701429535596162 265.2047271132469 8.200868964195251 C256.95551119122587 8.663404221013309 248.72579041906903 8.708672340200224 240.46575927734375 8.697006225585938 C238.80733705654347 8.698366755193376 237.1489151388413 8.700150297960192 235.49049377441406 8.702316284179688 C231.04799264969654 8.706815026962147 226.6055151526694 8.70513220930269 222.16301369667053 8.701937198638916 C217.46845205384062 8.699371854909202 212.77389218267695 8.70176278678548 208.07933044433594 8.703323364257813 C200.1960921658765 8.705133929721342 192.312863306984 8.70276907273717 184.42962646484375 8.697982788085938 C175.381434774907 8.692551814953106 166.33326566810302 8.69429888245162 157.285074532032 8.699809193611145 C149.45338129582814 8.704383612495121 141.62169476161716 8.704969634944291 133.79000061750412 8.702370524406433 C129.1404716454091 8.700830119567627 124.4909531920573 8.700551042368147 119.8414249420166 8.703907012939453 C86.55816000935101 8.724748936636104 86.55816000935101 8.724748936636104 70.35260963439941 7.920899391174316 C60.15819658236778 7.431027193192961 49.97306820293515 7.4693132759438186 39.769155502319336 7.523012161254883 C36.28409279091264 7.540789895249986 32.79907806016978 7.5508167035666816 29.313980102539063 7.558929443359375 C19.427352948554912 7.583081582850298 9.54079303887535 7.619396921256623 -0.34576416015625 7.6635589599609375 C-6.442329670088235 7.690266866800982 -12.538860301178502 7.707347029925188 -18.635473251342773 7.718427658081055 C-20.946818094526378 7.724634650604401 -23.258155983651363 7.734636459584351 -25.569467544555664 7.748506546020508 C-28.775382482242822 7.76762702173761 -31.98110868176466 7.774603056915794 -35.18707275390625 7.7787933349609375 C-36.13911087036133 7.787554931640614 -37.09114898681641 7.79631652832029 -38.07203674316406 7.8053436279296875 C-38.94179138183594 7.804039459228534 -39.81154602050781 7.802735290527323 -40.70765686035156 7.8013916015625 C-41.4627746295929 7.804534006118786 -42.21789239883423 7.807676410675072 -42.99589252471924 7.810914039611816 C-44.96905517578125 7.5676116943359375 -44.96905517578125 7.5676116943359375 -47.96905517578125 5.5676116943359375 C-47.59405517578125 3.6301116943359375 -47.59405517578125 3.6301116943359375 -46.96905517578125 1.5676116943359375 C-43.91859835149597 0.04238328219327059 -40.74949664692298 0.4669595645268032 -37.40655517578125 0.5051116943359375 C-37.03300903320313 0.5070050048827852 -37.03300903320313 0.5070050048827852 -35.14263916015625 0.5165863037109375 C-31.940505040866313 0.5329732041647617 -28.73849739376504 0.5611250277049749 -25.53643798828125 0.5881195068359375 C-23.201482992507394 0.6061463840889587 -20.866548411633524 0.6182768316070337 -18.53155517578125 0.6301116943359375 C-17.804443359375 0.6384100341796852 -17.07733154296875 0.646708374023433 -16.32818603515625 0.6552581787109375 C-10.688060842095133 0.6828959381128357 -5.778478919084009 -0.35026583760304675 0 0 Z " fill="#AEBFD0" transform="translate(59.96905517578125,344.43238830566406)"/>
</svg>
