<?xml version="1.0" encoding="UTF-8"?>
<svg version="1.1" xmlns="http://www.w3.org/2000/svg" width="460" height="510" viewBox="0 0 460 510">
<path d="M0 0 C5.280000000000001 0 10.560000000000002 0 16 0 C16 0.660000000000025 16 1.3199999999999932 16 2 C16.746850585937494 1.9947631835937614 17.49370117187499 1.9895263671875227 18.26318359375 1.984130859375 C21.633780567921377 1.9633959924570945 25.004364144733614 1.9503510081627837 28.375 1.9375 C28.962812499999984 1.9333105468750205 28.962812499999984 1.9333105468750205 31.9375 1.912109375 C32.49824218750001 1.9104980468749773 32.49824218750001 1.9104980468749773 35.3359375 1.90234375 C35.85438232421876 1.8997253417968523 35.85438232421876 1.8997253417968523 38.47802734375 1.886474609375 C41 2 41 2 43 3 C48.827529963042906 3.473693361835217 54.15768701769437 2.8974193574001674 59.80859375 1.51171875 C74.57366603363192 -1.9360967030406186 90.15435662598873 0.21021307008692247 105 2 C105 4.310000000000002 105 6.6200000000000045 105 9 C108.63 9 112.25999999999999 9 116 9 C116 6.689999999999998 116 4.3799999999999955 116 2 C133.87733218195677 1.974665983635873 151.75221185073173 2.034113924969404 169.62890625 2.18359375 C170.22206854820251 2.1884859561920393 170.22206854820251 2.1884859561920393 173.22382926940918 2.2132434844970703 C179.4572562079648 2.2648674146669805 185.6906683326049 2.317986938525678 191.924072265625 2.372314453125 C198.35202183802392 2.4279917989231876 204.7800038513517 2.4779150967160035 211.20800876617432 2.526717185974121 C216.17922423253555 2.565526368522171 221.1503956435298 2.6086333570622173 226.1215648651123 2.6529407501220703 C228.4951129740266 2.6733215911871184 230.86867594354402 2.6920416425242024 233.24225044250488 2.709074020385742 C236.52947900517637 2.733033314291106 239.8165970501484 2.763078282507763 243.103759765625 2.794677734375 C244.08273223876955 2.800433197021505 245.06170471191405 2.806188659667953 246.07034301757813 2.8121185302734375 C246.5149864959717 2.81701293945315 246.5149864959717 2.81701293945315 248.76515197753906 2.8417816162109375 C249.53941811561583 2.848234167099008 250.3136842536926 2.8546867179870787 251.11141300201416 2.861334800720215 C253 3 253 3 255 4 C255 6.639999999999986 255 9.279999999999973 255 12 C259.6656224313583 12.816483925487717 264.28634868745127 13.410793585931401 269 14 C269 21.920000000000016 269 29.839999999999975 269 38 C267.164375 38.515625 265.32875 39.03125 263.4375 39.5625 C259.2264747879727 40.9497769974202 256.3958220808127 42.11663844849943 253.4375 45.4375 C247.6828433683932 51.885488755896745 240.45412736474782 54.13205065198207 232 54.6875 C230.9275 54.711992187500016 229.85500000000002 54.73648437500003 228.75 54.76171875 C226 55 226 55 223 57 C222.01 57 221.01999999999998 57 220 57 C219.88656249999997 57.29906249999999 219.88656249999997 57.29906249999999 219.3125 58.8125 C217.5840952265276 61.69317462245397 216.01165001644455 62.5064174715194 213 64 C209.44140625000006 64.66015625 209.44140625000006 64.66015625 205.5625 65.0625 C201.87258374872152 65.45345984498914 198.54819202564516 65.8139032333994 195.03125 67.0078125 C190.72462253466114 68.41745602602589 186.331967207074 68.65909402294511 181.833984375 68.947265625 C176.55339335449247 69.45376106001544 174.40283940078842 71.03911920015184 171 75 C167.28695043317413 77.47536637788392 164.06267871729102 77.47500595045972 159.75 77.8125 C153.0067686696862 78.45491376509415 149.16418655021795 79.40961195536187 144 84 C138.5784923210225 86.24338248785273 132.8166624749262 87.03023989889329 127.0625 88 C126.11826171874998 88.16500000000002 125.17402343750001 88.32999999999998 124.201171875 88.5 C121.13767654665088 89.0252878794758 118.0706864518421 89.51855797218775 115 90 C113.93692626953123 90.17007568359372 112.87385253906251 90.3401513671875 111.778564453125 90.515380859375 C99.59886531545504 92.31036498276342 87.34443881750559 92.87679842282972 75.0625 93.5625 C71.7503153593185 93.75065662765923 68.4382444857925 93.94047337219115 65.12632751464844 94.13328552246094 C63.08186922276997 94.25199881196221 61.037247588481165 94.36794422075741 58.99244689941406 94.48060607910156 C54.340806393071006 94.74778343822572 49.77252715376571 95.14947749364421 45.15190124511719 95.76789855957031 C40.34676670593049 96.28617450301073 35.507304308823365 96.37115037417749 30.6796875 96.53515625 C29.46017898559569 96.57831466674804 28.240670471191407 96.62147308349608 26.984207153320313 96.66593933105469 C22.947991817665837 96.80477646622569 18.91159894315885 96.93543854237396 14.875 97.0625 C14.181918678283694 97.08457015991212 13.488837356567387 97.10664031982424 12.77475357055664 97.12937927246094 C-10.172052850346262 97.85616470080026 -33.111022966796696 98.21904483289245 -56.069236755371094 98.24631881713867 C-58.277884951888 98.24994319689313 -60.486493848743564 98.25722591303241 -62.69512939453125 98.26541137695313 C-127.62185484416797 98.47744464229953 -127.62185484416797 98.47744464229953 -137.78125 89.9609375 C-142.42740465747005 86.27830191669796 -146.5244832249998 86.04976398601724 -152.3125 85.875 C-163.00430608871704 85.43925846883718 -172.20724641677003 83.27215864910102 -183 81 C-183 56.25 -183 31.5 -183 6 C-179.6291015625 6.005800781250002 -179.6291015625 6.005800781250002 -162.5703125 6.03515625 C-158.28645736435016 6.0402687953168765 -154.00260601715212 6.045082999308306 -149.71875 6.048828125 C-142.9267498153713 6.054794218460643 -136.1347631771763 6.06183463744145 -129.3427734375 6.075439453125 C-123.8638684788061 6.08634476462106 -118.38497805887103 6.092292987880455 -112.90606307983398 6.094877243041992 C-110.82101080674504 6.096717749262098 -108.7359592836981 6.100311709580069 -106.65091323852539 6.105730056762695 C-103.71924399124163 6.113042042015422 -100.78763400280377 6.113986683765063 -97.85595703125 6.113525390625 C-97.42977333068848 6.115323028564433 -97.42977333068848 6.115323028564433 -95.27302551269531 6.124420166015625 C-90.23256546585122 6.115898440715796 -85.30741257211722 5.802835710951513 -80.29952812194824 5.224295616149902 C-76.49241297460836 4.85295019550648 -72.69624385256951 4.893460842124625 -68.875 4.9375 C-68.109296875 4.9420117187499955 -67.34359375 4.946523437499991 -66.5546875 4.951171875 C-64.70308962829832 4.962744361698128 -62.85153311934317 4.980668447709888 -61 5 C-61 7.310000000000002 -61 9.620000000000005 -61 12 C-58.03 12 -55.06 12 -52 12 C-52 10.019999999999982 -52 8.04000000000002 -52 6 C-47.87501531833675 5.970619767224605 -43.75005808667214 5.953074652970201 -39.625 5.9375 C-38.46871093749999 5.929121093749984 -37.31242187500001 5.920742187500025 -36.12109375 5.912109375 C-29.345994406545714 5.8929706762896785 -22.723602740620606 6.147779989864205 -16 7 C-16 6.339999999999975 -16 5.680000000000007 -16 5 C-10.54538830722177 3.6147017923103135 -5.632815990966208 2.7603057025120847 0 3 C0 2.009999999999991 0 1.0199999999999818 0 0 Z " fill="#5FD4F4" transform="translate(183,404)"/>
<path d="M0 0 C0.3299999999999841 0.16499999999999915 0.3299999999999841 0.16499999999999915 2 1 C3.148583136115491 4.445749408346483 3.1933354770939957 7.24471627785136 3.28125 10.87890625 C3.2990702819824094 11.558232116699216 3.316890563964847 12.237557983398439 3.3352508544921875 12.937469482421875 C3.373290214203223 14.391282705209782 3.409544332208071 15.845143533551223 3.444183349609375 17.299041748046875 C3.5003811296749063 19.577955443881052 3.565659126921588 21.85643076678008 3.634033203125 24.135009765625 C3.999915684771196 36.34624544420641 3.999915684771196 36.34624544420641 4.07421875 42.2734375 C4.427146760634514 58.78822758492878 8.89960609970342 75.23379203909045 14 90.875 C15.285048171331425 94.89077553541071 16.429876307672117 98.93899533585099 17.5625 103 C17.760451660156264 103.69996093750001 17.9584033203125 104.39992187500002 18.162353515625 105.12109375 C19.361759634068733 109.4375697519931 20.41544080232228 113.77053078604285 21.40234375 118.140625 C23.056221360188914 125.40397011549635 25.028293864725384 132.56775145859743 27 139.75 C29.587606257293487 149.2509376735396 31.835529417624144 158.67534660907094 33.36328125 168.40625 C34.20909916626513 173.18019161327555 35.55494156114344 177.7350653918267 36.95703125 182.37109375 C38.36806176102834 187.28063436702368 39.49975184770369 192.24236700194567 40.605224609375 197.228515625 C41.24182028911821 200.04357179621084 41.89592296615393 202.7429172869141 42.98046875 205.421875 C44.49019380867102 209.2395705506624 45.281717249974776 213.18967874429867 46.1875 217.1875 C48.3836284464152 226.65646681962957 50.84189226600054 236.0391730938676 53.412841796875 245.412841796875 C54.981177183337735 251.14762288926136 56.48755119164821 256.89335492266804 57.91796875 262.6640625 C59.90729443132469 270.6893866678564 62.003029771101836 278.68464118473287 64.11883544921875 286.67742919921875 C77.75925287846411 338.222404722149 77.75925287846411 338.222404722149 82 356 C82.2152734375 356.8598046875 82.430546875 357.719609375 82.65234375 358.60546875 C83.03852158869825 361.2653228524948 82.75325656305881 363.08410807773566 82.125 365.6875 C80.99307466822137 370.77351584887026 80.41949676945416 375.811487325172 80 381 C80.5916796875 380.976796875 81.18335937500001 380.95359375 81.79296875 380.9296875 C86.47862226355699 380.8226742060525 89.64395561135086 381.18498150472954 94 383 C96.67770940908588 382.68863844080397 98.59556731637298 382.20221634181354 101 381 C105.23301746079937 380.65444755422044 108.49627968966917 381.05443130486134 112.4375 382.5 C118.37794603083893 384.6309214188458 123.40011350002271 384.23001809305947 129.5625 383.375 C133.81858785360214 382.84298901829976 136.89099177827967 383.72994291328644 141 385 C144.8636301659261 385.3153983808919 148.28766239950863 385.23744586683046 152 384 C155.96711530313615 383.6805506403842 159.72375818145633 383.47641361290516 163.4375 385 C167.4809818623512 386.57794414140534 171.71142597119524 386.47418379505484 176 386 C176.61705810546874 385.66782470703123 177.2341162109375 385.3356494140625 177.869873046875 384.993408203125 C180.28909186055466 383.86517882170807 181.83111822105286 383.7815212145772 184.484375 383.83984375 C185.33773437500003 383.85080078125 186.19109375 383.8617578125 187.0703125 383.873046875 C187.95460937500002 383.89431640625 188.83890624999998 383.9155859375 189.75 383.9375 C199.60249365323108 384.1348422319267 199.60249365323108 384.1348422319267 204.46875 383.44140625 C208.00000000000006 383 208.00000000000006 383 210.75 384 C214.25317854677576 385.0779010913156 216.1541053438603 384.87322703103735 219.75 384.4375 C225.07306921676542 383.85189658801966 228.6381757106214 384.6067167690017 233.62890625 386.35546875 C238.92484680005708 387.79505720265144 243.9565692818266 386.3325399301941 249.0625 384.75 C252.97390212082962 383.70748199985906 255.68987570329875 384.3289753061418 259.3671875 385.9296875 C261.769452388811 387.5043778816608 262.4062033958283 389.25369070570576 263 392 C262.67 392.33 262.34 392.66 262 393 C258.93823971705075 392.65338562834535 255.98080147307292 392.3145598349895 253.0390625 391.37109375 C250.45780203237518 390.90132412466596 249.10762366410472 391.47031025857274 246.6875 392.4375 C241.68011825529828 394.22702331204096 237.42532283932468 394.9566156067131 232.3359375 392.94921875 C228.11636713755684 391.74856816677556 224.63285673974553 392.07504687805783 220.3125 392.5 C212.39961980712167 393.2664132047478 212.39961980712167 393.2664132047478 209 391 C204.6964843349184 390.4425922567132 200.8463759334918 390.70702371532974 196.75 392.125 C193.28168769231604 393.22855391608124 192.2576103652213 392.4301704042435 189 391 C184.86864209064623 390.6102492538345 181.93333058952942 390.9161470392794 178.1875 392.5625 C173.43841408590572 394.52891838630467 168.94823727931293 394.1689441530171 164 393 C163.01 392.34 162.01999999999998 391.68 161 391 C157.57982442558034 390.60041513090937 154.12706959495836 390.4364652025208 151 392 C148.91939575166236 392.1235717992797 146.83423667205932 392.17560367196313 144.75 392.1875 C143.63109375 392.2016796875 142.51218749999998 392.215859375 141.359375 392.23046875 C137.99999999999994 392 137.99999999999994 392 134.91796875 390.9296875 C131.58947664735342 389.869204072383 129.91682667370907 390.11474062720345 126.5625 390.9375 C119.32976640834659 392.4406592079819 114.02361674739069 391.22268073698655 107.30859375 388.42578125 C105 388 105 388 102.23046875 388.94921875 C98.28825165139938 390.23151185704177 94.91843045378289 389.92759839678223 90.875 389.5 C83.05418667952284 388.68204337749137 83.05418667952284 388.68204337749137 79 391 C76.21421299282991 391.0155053080176 73.76466657558285 390.4985464316625 71 390 C70.67000000000002 389.67 70.33999999999997 389.34 70 389 C65.48108260263595 388.52927943777456 62.80234784381298 388.9373841010808 58.75 391 C53.5363035256525 393.50435676801993 48.701814051941454 393.7852263483112 43 393 C41 392 39 391 37 390 C33.211780159373205 389.97863785804157 29.533595706526484 390.7141685421528 25.8203125 391.40625 C20.9976806681386 392.20698887019586 18.991073719663063 391.69667143220477 15 389 C11.31077995433381 388.3378322994958 10.21116668880768 388.8562269352799 7.0625 391 C3.594145907855932 393.2650475703798 2.052128042800348 393.52853844036525 -2 393 C-2.639375000000001 392.649375 -3.2787500000000023 392.29875 -3.9375 391.9375 C-7.271783574679063 390.42191655696405 -9.469655199560918 391.14588432247444 -13 392 C-14.661222897104182 392.8238364775199 -16.306387870041505 393.68054689747254 -17.9375 394.5625 C-22.707526883013884 397.0635019371425 -25.650954619947214 397.7252942888207 -31 397 C-32.670165157525275 396.0058540729016 -34.33720673106944 395.006427504879 -36 394 C-41.262530258872175 394.1169451168638 -45.47575963217014 396.531188631768 -50 399 C-55.76354679802961 395.2857142857142 -55.76354679802961 395.2857142857142 -57.5 393.1875 C-59 392 -59 392 -62 392.1875 C-65 393 -65 393 -68 395 C-71.51422442118914 395.9371265123171 -73.4642216305734 396.18239263640055 -76.9375 395 C-80.71158974959492 393.76764416339756 -83.15784067722487 394.13007713446603 -87 395 C-87.99 395.66 -88.98 396.32 -90 397 C-94.63657700185358 397.69189230454015 -98.31904324983357 397.29351584058895 -102.625 395.4375 C-106.68525438432003 393.70813239186367 -108.75625380853133 393.9783573983501 -113 395 C-113.78375 395.350625 -114.5675 395.70125 -115.375 396.0625 C-121.02787761650173 398.0813848630363 -126.16876847819381 397.47799992212344 -131.625 395.1875 C-133.89453124999994 394.3359375 -133.89453124999994 394.3359375 -136 394 C-137.92091943905052 395.0333221810065 -139.3363510097205 396.3333276422911 -140.9765625 397.765625 C-145.0897117888468 400.2748048750494 -150.39868434067384 399.9410307060681 -155 399 C-157.2109375000001 396.9648437499999 -157.2109375000001 396.9648437499999 -159 395 C-162.47608704615254 395 -163.74837129207805 395.7687736197474 -166.3125 398.125 C-169.44299318107727 400.3090650100539 -171.28542443678157 400.35440808823785 -175.015625 399.6953125 C-177.2098183926802 398.9264809568955 -178.46896844878063 397.98772176012056 -180.1875 396.4375 C-182.99999999999997 394 -182.99999999999997 394 -185.875 393.6875 C-186.57625 393.790625 -187.2775 393.89375 -188 394 C-188 391.69 -188 389.38 -188 387 C-185.375 386.25 -185.375 386.25 -182 386 C-179.3777613791974 387.48428601177505 -177.13527350072317 388.8647264992768 -175 391 C-172.18750000000014 391.3125 -172.18750000000014 391.3125 -169 391 C-168.360625 390.34 -167.72125 389.68 -167.0625 389 C-165 387 -165 387 -161.625 386.4375 C-157.0987347584297 387.13985150300226 -155.46913074593434 389.09725794727945 -152 392 C-149.2697904185043 392.70361118071213 -146.83728418355457 392.8532439215403 -144 393 C-143.67000000000002 392.01 -143.34 391.02 -143 390 C-139.30092876060687 387.1464307581824 -136.62712983633915 386.4334126731013 -132 387 C-131.5153125 387.2475 -131.5153125 387.2475 -129.0625 388.5 C-125.32112393961289 390.3325107234549 -123.13336265126487 390.427589239786 -119 390 C-117.69595524443932 389.5109832166647 -116.40419128744608 388.98826291542815 -115.125 388.4375 C-109.64324292548132 386.16144881701274 -104.49700252227042 387.16766582590986 -99 389 C-92.8159509202454 389.3435582822086 -92.8159509202454 389.3435582822086 -89.625 388 C-84.48833102249239 386.04317372285425 -78.96864672570841 386.8081994875989 -73.625 387.625 C-69.99999999999997 388 -69.99999999999997 388 -67 386 C-66.63813280256332 381.72996707024714 -66.73500290129125 378.86124057080343 -68 374.75 C-69.10820638521044 370.59422605546087 -69.34388565337224 366.9598117082701 -69.3125 362.6875 C-69.31048583984375 361.93984375 -69.3084716796875 361.1921875 -69.306396484375 360.421875 C-69.21426906397278 355.32893880147714 -68.4595014171473 350.979212250171 -66.71875 346.16796875 C-65.99393144492483 343.98169539094175 -65.73185016260837 342.1029609492781 -65.5625 339.8125 C-65.14953078683698 335.0170003614334 -63.86814180482253 330.5490401694896 -62.582275390625 325.922119140625 C-60.87204633528678 319.698422663738 -59.62516668673078 313.4150512110885 -58.40625 307.07763671875 C-57.63804836627236 303.1489132193376 -56.81949125232455 299.2307899231868 -56 295.3125 C-55.84595703125001 294.565166015625 -55.69191406249999 293.81783203125 -55.533203125 293.0478515625 C-54.6557793330407 288.85915416561545 -53.68928868369929 284.7039192171199 -52.640625 280.5546875 C-50.56313182288872 272.3338803821765 -48.65763223240455 264.07403667608224 -46.75 255.8125 C-46.651678771972655 255.38739639282227 -46.651678771972655 255.38739639282227 -46.15411376953125 253.23611450195313 C-43.28750052049722 240.82410439566786 -40.54873499956719 228.39134731500948 -37.95538330078125 215.91949462890625 C-36.4104202341056 208.490806621091 -34.81170591651403 201.08305545192988 -33.046875 193.703125 C-32.88526885986329 193.02508316040038 -32.723662719726576 192.34704132080077 -32.557159423828125 191.64845275878906 C-31.7910463687779 188.44246292541268 -31.013991072533003 185.240079506321 -30.22021484375 182.040771484375 C-28.64948029742061 175.53847999069248 -27.681060231393246 169.3240033023447 -27.24267578125 162.652099609375 C-26.914970786756754 159.07075216955582 -25.970141732719497 155.85709819190225 -24.875 152.4375 C-21.631510809747795 141.6920713114823 -19.632680992561916 130.68149529071 -17.49951171875 119.675537109375 C-14.880673662452551 106.17449079610714 -11.782894661488086 92.86583559814899 -8.162109375 79.595703125 C-5.197185608770923 68.47533352364209 -3.698302368297675 57.92643511814316 -3.875 46.41015625 C-3.8825732421875045 45.26260360717774 -3.890146484375009 44.115050964355476 -3.89794921875 42.93272399902344 C-3.922145135297029 39.30915403006702 -3.9594257975531946 35.68592118636522 -4 32.0625 C-4.053211699697897 27.261727783804574 -4.093130232522952 22.461112106363473 -4.125 17.66015625 C-4.133298339843748 17.112226638793942 -4.133298339843748 17.112226638793942 -4.17529296875 14.339370727539063 C-4.181899414062514 13.317380828857424 -4.188505859374999 12.295390930175785 -4.1953125 11.242431640625 C-4.205786132812506 10.348189849853512 -4.216259765625011 9.45394805908203 -4.22705078125 8.532608032226563 C-3.9707350783716606 5.673568286484613 -3.2771413077871046 3.5649126174092842 -2 1 C-1.3400000000000034 0.6700000000000017 -0.6800000000000068 0.33999999999999986 0 0 Z M-2 92 C-2.329999999999984 92.99 -2.6599999999999966 93.98 -3 95 C-3.6599999999999966 95 -4.319999999999993 95 -5 95 C-5.183933105468753 95.7977685546875 -5.367866210937507 96.595537109375 -5.557373046875 97.41748046875 C-6.833076810765874 102.94837313244494 -8.110339546536068 108.47888391863478 -9.39453125 114.0078125 C-9.867378263135976 116.04683077155588 -10.340028293989292 118.0858947313614 -10.8125 120.125 C-11.068942871093753 121.231015625 -11.325385742187507 122.33703125 -11.589599609375 123.4765625 C-13.209191511903896 130.4900223449041 -14.774771547556611 137.5133624604257 -16.30810546875 144.546142578125 C-18.55950615923817 154.85376897564475 -20.988848617246447 165.04827578401745 -23.90625 175.1875 C-26.188919528342836 183.1442337845093 -28.063190562153977 191.08044126865929 -29.47265625 199.234375 C-30.02070986655761 202.10861174461326 -30.706524211385442 204.9169953892037 -31.4375 207.75 C-32.59174576316741 212.22847356108954 -33.559862610364064 216.70918046231841 -34.4375 221.25 C-35.626188345290615 227.34984808767553 -37.04923893344247 233.35285033879302 -38.589599609375 239.372314453125 C-39.683269866175976 243.66658627836324 -40.62167153665513 247.9577984719798 -41.453125 252.30859375 C-42.1469230403919 255.7230712487858 -42.94510790708168 259.1104345873831 -43.75 262.5 C-44.100267270394 263.977862958953 -44.450527296948394 265.4557276347764 -44.80078125 266.93359375 C-44.895930175781245 267.3350561523438 -44.895930175781245 267.3350561523438 -45.37744140625 269.36669921875 C-48.81780057837369 283.9187439366034 -52.15933865507725 298.48240504523477 -55.166748046875 313.130615234375 C-56.83888001846475 321.2745548691934 -58.59505356006389 329.3983929353598 -60.388916015625 337.516357421875 C-60.936525161857844 340.00877609031727 -61.46982073423678 342.5038294569066 -62 345 C-62.25265625 346.142109375 -62.5053125 347.28421875000004 -62.765625 348.4609375 C-63 351 -63 351 -61 354 C-58.90624999999997 354.328125 -58.90624999999997 354.328125 -56.5 354.25 C-55.705937500000005 354.23453125 -54.91187500000001 354.2190625 -54.09375 354.203125 C-51.999999999999915 354 -51.999999999999915 354 -50 353 C-48.1303821273587 352.67561835017267 -46.2538494135469 352.39074296916175 -44.375 352.125 C-37.30943211363444 351.07251672229387 -30.29751129805001 349.7995656397775 -23.2861328125 348.4384765625 C-20.76324676760791 347.954591114334 -18.237209325934913 347.48930718713564 -15.7109375 347.0234375 C-13.911356001837305 346.6828318888622 -12.11187535893302 346.34169294480967 -10.3125 346 C-9.462927246093756 345.8461181640625 -8.613354492187511 345.692236328125 -7.738037109375 345.53369140625 C1.115332106512767 343.82208141059107 1.115332106512767 343.82208141059107 4 341 C5.080496602751396 334.24378108396843 5.086713908301164 327.6337647964221 4.94580078125 320.80810546875 C4.928045959472655 319.7256353759766 4.91029113769531 318.64316528320313 4.891998291015625 317.52789306640625 C4.832171248981808 313.97419825751547 4.763976582935811 310.4207216951853 4.6953125 306.8671875 C4.651057625148155 304.38575912162133 4.607189456084313 301.9043238191552 4.563690185546875 299.4228820800781 C4.4714380014551125 294.23318101255484 4.375151065769359 289.04357532116995 4.27587890625 283.85400390625 C4.148991975703609 277.20863188398954 4.031174788110377 270.5631583780932 3.9162464141845703 263.91757011413574 C3.826872913137038 258.79767710046826 3.733199857564358 253.67786982773475 3.6381797790527344 248.55807876586914 C3.593123320469914 246.10773020651243 3.5492821459938853 243.65735898386373 3.5066871643066406 241.20696640014648 C3.446410060520293 237.78224943853309 3.380464731758991 234.35768716208509 3.31298828125 230.93310546875 C3.304649658203118 230.42911727905272 3.304649658203118 230.42911727905272 3.262451171875 227.87863159179688 C3.156812746102446 222.83007863483581 2.788442892499006 217.9976018009294 2 213 C1.9027746770492513 211.38214046352954 1.836863293376382 209.7619220423993 1.810546875 208.141357421875 C1.7938293457031307 207.25320846557617 1.7771118164062614 206.36505950927733 1.7598876953125 205.4499969482422 C1.7463122558593795 204.51130264282227 1.732736816406259 203.57260833740236 1.71875 202.60546875 C1.7003405761718682 201.61807205200193 1.6819311523437364 200.63067535400393 1.6629638671875 199.6133575439453 C1.6045385611221263 196.4714622831384 1.5516151842530803 193.32951404329367 1.5 190.1875 C1.4317826837191774 186.0558895499269 1.3580553299624967 181.9244274468686 1.28125 177.79296875 C1.2676745605468795 176.86034713745119 1.254099121093759 175.92772552490234 1.2401123046875 174.9668426513672 C1.141241200153388 169.6582088492151 0.7902326850913539 164.44454806042978 0.2171630859375 159.1664276123047 C-0.027417590303969064 156.72648102488995 -0.10050318638371891 154.3303756827658 -0.0625 151.87890625 C-0.05831054687499204 151.44779541015623 -0.05831054687499204 151.44779541015623 -0.037109375 149.26611328125 C-0.03098632812498181 148.82001708984376 -0.03098632812498181 148.82001708984376 0 146.5625 C0.051901690846591464 139.55931048735653 -0.0554618575595498 132.61425282496896 -0.5 125.625 C-1.2065007511964723 114.42278225718644 -1.0936281934565386 103.2195384435849 -1 92 C-1.329999999999984 92 -1.6599999999999966 92 -2 92 Z M6 96 C4.581774732227643 109.0643747032293 5.137594551571027 122.07923800800205 5.5 135.1875 C5.6219174787297845 139.61833863142846 5.735238911278316 144.04928385465294 5.84375 148.48046875 C5.873922119140616 149.47346481323243 5.90409423828126 150.46646087646485 5.9351806640625 151.4895477294922 C6.051097055131976 156.23583845631163 5.976407631165017 160.8421626905343 5.49072265625 165.5673828125 C4.944643500287896 170.91232410088944 5.034676732116509 176.08239257946929 5.3046875 181.44140625 C5.394465554354497 183.53277465059676 5.483710529898445 185.62416598212437 5.572509765625 187.715576171875 C5.621907043457043 188.82532806396483 5.671304321289057 189.9350799560547 5.722198486328125 191.07846069335938 C6.986153374801972 219.8979953134148 7.374256250727484 248.71177969751074 7.634452819824219 277.5550374984741 C7.779523158179217 293.6081302740531 7.9333171706042265 309.6595720076864 8.40234375 325.70703125 C8.431554107666017 326.9057536315918 8.460764465332034 328.10447601318356 8.490859985351563 329.3395233154297 C8.509085617065438 329.8853733062744 8.509085617065438 329.8853733062744 8.601318359375 332.647705078125 C8.629954681396498 333.59148513793946 8.658591003417968 334.5352651977539 8.688095092773438 335.5076446533203 C9.01459679393193 338.1166393877036 9.596482669017576 339.78729507962345 11 342 C23.344703935496 348.12155071698464 41.06384086943325 347.91378967094784 54.63671875 349.5234375 C57.381763840418614 349.91239859295126 59.905588347120926 350.4254794494611 62.5625 351.1875 C66.41478045673944 352.0980390170475 69.1584863560717 351.86238061394306 73 351 C74 350 74 350 74.3125 347.25 C74.2455353994767 342.505079734351 72.59294863991437 338.30043009987753 71.1328125 333.828125 C69.87630356499932 329.5819913575839 68.98146144550742 325.3403270232202 68.125 321 C66.59595093341758 313.3654206795105 64.62917691946217 305.9492110472912 62.4267578125 298.48388671875 C59.88340821319727 289.78537707169653 57.69652768137564 281.00762031177703 55.535888671875 272.207275390625 C54.09133901008124 266.33117740265357 52.60301607918373 260.47240702324143 51.03125 254.62890625 C49.656598497847625 249.51137869138768 48.33288727855677 244.38449552665816 47.0703125 239.23828125 C46.91199951171876 238.5934176635742 46.753686523437494 237.9485540771484 46.590576171875 237.28414916992188 C46.26744776521704 235.96713940269933 45.94438925960776 234.65011248338118 45.62139892578125 233.33306884765625 C42.983002680059485 222.59359906840885 40.27001612914978 211.90431181196675 36.90283203125 201.364501953125 C35.73457795779075 197.67121642197603 34.77346446774064 194.0389989305496 34.0546875 190.23046875 C32.91903389475391 184.26857439364233 31.225132844047863 178.5017029534751 29.5 172.6875 C29.19191406249999 171.62982421875 28.883828125000008 170.5721484375 28.56640625 169.482421875 C27.216168510801197 164.88987505819716 25.787850592631116 160.4414951523569 24 156 C23.527465637272627 154.11259396159184 23.092963534118354 152.21544235337754 22.6875 150.3125 C21.49761523460927 144.9849254976726 20.12043862676714 139.7470014245529 18.625 134.5 C16.434676424928398 126.80518962639928 14.538371593394032 119.0623027655574 12.78759765625 111.255859375 C11.574476007172251 105.96784053549771 10.013709211236545 101.04009299690996 8 96 C7.340000000000003 96 6.680000000000007 96 6 96 Z M12.3125 349.1875 C10 351 10 351 9.125 352.9375 C9 355 9 355 9.4833984375 356.855712890625 C10.02459327491735 359.10208068695607 10.125618377954964 361.06382561057404 10.140625 363.37109375 C10.159960937499989 364.19287109375 10.179296875000006 365.0146484375 10.19921875 365.861328125 C10.232991267657184 367.57463392460824 10.251295988553608 369.28831648543627 10.25390625 371.001953125 C10.387438314614968 375.48933329640323 10.526061884912707 377.411768127255 13.4296875 381.015625 C18.169914825200067 384.67525339088394 20.891503469235204 385.4212756228114 27 385 C27.495000000000005 384.835 27.495000000000005 384.835 30 384 C33.59566555341428 382.80144481552855 36.230666715719934 382.5888000053513 40 383 C41.68256129999472 384.3132185756056 43.349971721383014 385.64613064318604 45 387 C49.98445037922369 387.92733960543694 53.72931151898925 386.02619854008356 58.203125 384.046875 C61.25858188534184 382.9032123669391 64.15906933191712 382.45518640022794 67.375 381.9375 C71.02875982010045 381.0932422752014 72.51095393124274 380.7341611685944 74.61328125 377.578125 C75.67286707263133 374.72687587728296 76.40150188188272 371.97966563091245 77 369 C77.15468750000002 368.443125 77.15468750000002 368.443125 77.9375 365.625 C78.01817911034198 362.2364773656359 77.04690300554131 360.65339278496094 75 358 C71.73753886483314 356.36876943241657 68.09020053729802 356.37729529456004 64.5 356 C56.27027027027026 355.13513513513516 56.27027027027026 355.13513513513516 54 354 C51.69230828430767 353.6724566597082 49.37835085664028 353.3887432544026 47.0625 353.125 C40.60250577040543 352.36047268661787 34.175244081165545 351.4534812534945 27.75 350.4375 C26.940549316406248 350.3106884765625 26.131098632812495 350.183876953125 25.297119140625 350.05322265625 C19.342522531685802 349.1015432235535 19.342522531685802 349.1015432235535 16.9189453125 348.383056640625 C15 348 15 348 12.3125 349.1875 Z M-30.841064453125 354.234619140625 C-35.270872442683554 355.2498395734904 -39.603763963985756 356.1313412825449 -44.12890625 356.58984375 C-48 357 -48 357 -49 358 C-51.73808267565465 358.49783321375537 -54.48494038258838 358.90032502281 -57.23828125 359.3046875 C-60.216313001861295 360.0544606991956 -61.817072711842115 360.85269157202185 -64 363 C-64.97484749719825 369.8239324803878 -63.121291758178955 375.91121926592916 -60 382 C-57.43522837245547 385.2502339778905 -54.72956435374371 388.13521782312813 -51 390 C-46.0465296991066 390.4503154818994 -43.355148660105925 389.2239056987775 -39 387 C-36.375 386.625 -36.375 386.625 -34 387 C-33.40187499999999 387.495 -32.80375000000001 387.99 -32.1875 388.5 C-28.943337879406698 390.72456831126397 -25.753703763578812 390.67986156796997 -22 390 C-18.6875 388.0625 -18.6875 388.0625 -16 386 C-11.20436257964738 384.4014541932158 -6.713045440293513 384.85400475158815 -1.8125 385.75 C2 386 2 386 4.20947265625 384.352783203125 C6.370993365825257 381.5125084447153 6.491822922961489 380.1382160999172 6.4609375 376.60546875 C6.4570703124999795 375.56712890625 6.453203125000016 374.5287890625 6.44921875 373.458984375 C6.424726562499984 372.37939453125 6.400234374999997 371.2998046875 6.375 370.1875 C6.373710937499993 369.11951171875 6.372421874999986 368.0515234375 6.37109375 366.951171875 C6.308653170638024 361.34192649564733 6.226619231014013 356.1978085870486 4 351 C-2.887817066033108 345.0305585427713 -22.863192055130668 352.3878956300155 -30.841064453125 354.234619140625 Z " fill="#AEBFD0" transform="translate(188,25)"/>
<path d="M0 0 C0.3299999999999841 0.660000000000025 0.3299999999999841 0.660000000000025 2 4 C-10.46914929727211 9.175873293207303 -22.58639603953992 9.297826718857436 -35.875 9.1875 C-37.650796828109264 9.177929506828264 -39.42659437069051 9.168490731206532 -41.202392578125 9.1591796875 C-45.633339517168395 9.130937375261794 -50.063874955951235 9.084686188383614 -54.49456787109375 9.02996826171875 C-56.86696399104363 9.00159128554651 -59.23934857649374 8.978904686416286 -61.61181640625 8.95751953125 C-65.63796217153873 8.917724000015255 -69.66213333414112 8.838867670144907 -73.6875 8.75 C-74.28006591796873 8.743031005859393 -74.28006591796873 8.743031005859393 -77.27880859375 8.707763671875 C-85.24959821648287 8.469785584902013 -85.24959821648287 8.469785584902013 -89.26953125 5.953125 C-89.84058593750001 5.30859375 -90.41164062500002 4.6640625 -91 4 C-87.2122695815957 1.504995638949083 -83.41166662823025 1.754194229270297 -79.046875 1.83984375 C-78.25827087402342 1.8477342224121003 -77.46966674804685 1.8556246948242006 -76.65716552734375 1.8637542724609375 C-66.29766989717717 1.989710408843905 -55.93906977449927 2.315306055060546 -45.58447265625 2.648193359375 C-18.37698592473322 3.5101385313100764 -18.37698592473322 3.5101385313100764 -10.0625 0.9375 C-6.586573580204629 -0.12655910810065052 -3.614260878694097 -0.14752085219157607 0 0 Z " fill="#AEBFD0" transform="translate(400,445)"/>
<path d="M0 0 C0.7992187499999943 0.009023437499990905 1.5984374999999886 0.01804687499998181 2.421875 0.02734375 C3.025156250000009 0.03894531250000455 3.628437500000018 0.050546875000009095 4.25 0.0625 C4.579999999999984 0.722500000000025 4.579999999999984 0.722500000000025 6.25 4.0625 C-1.8092874591999077 10.041971340696705 -13.803715292134228 8.210534834088833 -23.3984375 8.1953125 C-24.902964433146877 8.195987255139073 -26.407491259538233 8.196958710823083 -27.912017822265625 8.198211669921875 C-31.046987407326327 8.199677845111808 -34.181928304202415 8.197567215987306 -37.31689453125 8.19287109375 C-41.33515869396862 8.187144740097892 -45.35335647915895 8.190477893590923 -49.37161827087402 8.196443557739258 C-52.470230131151084 8.200053215232003 -55.56882617665332 8.19890922674989 -58.66743850708008 8.19631576538086 C-60.1498172293754 8.19564914954725 -61.632197390806084 8.196465656450243 -63.11457443237305 8.198795318603516 C-65.17977477132703 8.201331688969617 -67.24486636961473 8.197468685796593 -69.31005859375 8.19189453125 C-70.48426361083983 8.191098937988272 -71.6584686279297 8.190303344726544 -72.86825561523438 8.189483642578125 C-75.75 8.0625 -75.75 8.0625 -78.75 7.0625 C-78.41999999999999 5.412500000000023 -78.09 3.7624999999999886 -77.75 2.0625 C-59.24153804672815 1.1774457338891011 -40.7898353726938 0.9714095218938041 -22.263916015625 1.099609375 C-21.397751617431652 1.1038391113281136 -20.531587219238276 1.1080688476562273 -19.639175415039063 1.1124267578125 C-18.005714112934584 1.1205956009379179 -16.372266486054514 1.1329712918082464 -14.738876342773438 1.1502685546875 C-9.68336522352115 1.172831738392233 -5.0199422405465555 -0.0738226800080497 0 0 Z " fill="#AEBFD0" transform="translate(243.75,430.9375)"/>
<path d="M0 0 C0.8324826049804699 0.021239318847676714 1.6649652099609398 0.042478637695296584 2.522674560546875 0.064361572265625 C4.2827673833368465 0.11052004718663966 6.042789687227383 0.1594394842641691 7.802734375 0.2109375 C10.46210352873041 0.28818860105246813 13.121583430361795 0.35575341923350834 15.78125 0.421875 C29.950325678054952 0.7981594426795482 29.950325678054952 0.7981594426795482 35.88671875 1.515625 C44.19352755828288 2.3793645815089235 52.62073225552035 1.443146643294881 60.9296875 0.9140625 C63.54552530678603 0.7505275447168742 66.16142183584785 0.5894353093669338 68.77781677246094 0.43505859375 C70.3952313694057 0.3393901516436131 72.01233915623797 0.23834876988149745 73.62904357910156 0.13134765625 C79.14261210598053 -0.19822519700971952 79.14261210598053 -0.19822519700971952 81.3671875 0.9140625 C80.3671875 3.9140625 80.3671875 3.9140625 78.193115234375 5.06298828125 C67.54734995743775 8.269134091652006 54.86514738410298 7.077313089333472 43.8046875 7.0390625 C43.00736206054688 7.037511596679678 42.210036621093764 7.035960693359357 41.3885498046875 7.03436279296875 C30.294407725199733 7.009232934621707 19.206559301373773 6.872936059611277 8.1171875 6.5390625 C6.953728027343743 6.508286132812486 5.790268554687486 6.477509765624973 4.591552734375 6.44580078125 C-1.7365322864329755 6.220315678860004 -7.500343961336924 5.505399272691079 -13.6328125 3.9140625 C-13.6328125 2.924062499999991 -13.6328125 1.9340624999999818 -13.6328125 0.9140625 C-9.08094733399048 -0.25933238090158284 -4.657797983307745 -0.14041025183740885 0 0 Z " fill="#AEBFD0" transform="translate(134.6328125,453.0859375)"/>
<path d="M0 0 C0.16499999999999204 0.3299999999999841 0.16499999999999204 0.3299999999999841 1 2 C-1.1825885788382777 4.646121379313854 -2.3845744521351264 5.883300044196176 -5.807861328125 6.532440185546875 C-6.888337402343751 6.54735504150392 -7.968813476562502 6.562269897460965 -9.08203125 6.57763671875 C-10.31010498046875 6.6038107299804665 -11.538178710937501 6.629984741210933 -12.803466796875 6.656951904296875 C-14.139806907016556 6.665252649326476 -15.476151790396798 6.6728132704790255 -16.8125 6.6796875 C-18.187277358347067 6.699759954645629 -19.56203433232995 6.721275916764398 -20.936767578125 6.744171142578125 C-23.814944886091162 6.787955331499347 -26.69285269514546 6.818488359836238 -29.5712890625 6.8388671875 C-33.25711232123919 6.865422696541316 -36.94195565544361 6.918338757780248 -40.62733459472656 6.98036003112793 C-43.46512914529828 7.0263216831177715 -46.30297429463099 7.061599670585906 -49.140960693359375 7.093326568603516 C-50.4997372204374 7.109168762980403 -51.85848666253996 7.127547292345355 -53.217193603515625 7.148525238037109 C-55.11733280956251 7.1755988306578615 -57.01766989382084 7.187494856704291 -58.91796875 7.19873046875 C-59.99844482421875 7.208871765136735 -61.0789208984375 7.2190130615234125 -62.192138671875 7.229461669921875 C-64.99169435218046 7.000678747130223 -66.62402146993989 6.448550135856749 -69 5 C-68.67 3.680000000000007 -68.34 2.3600000000000136 -68 1 C-64.69570334211184 0.01929615275184915 -61.64905898032973 -0.1588529034848989 -58.209228515625 -0.22119140625 C-57.62683662414551 -0.23277786254880084 -57.62683662414551 -0.23277786254880084 -54.67958068847656 -0.291412353515625 C-53.4253581237793 -0.31126190185545966 -52.17113555908203 -0.3311114501952943 -50.87890625 -0.3515625 C-49.58685775756836 -0.3747152709960915 -48.29480926513672 -0.39786804199218295 -46.96360778808594 -0.421722412109375 C-44.23090755564951 -0.4700996821799208 -41.498177345348836 -0.5150358832265169 -38.765380859375 -0.5576171875 C-35.270554250238426 -0.6123985386988693 -31.775962814533017 -0.6762638222057262 -28.28134250640869 -0.7427921295166016 C-24.93894610809889 -0.8050535035617372 -21.59643162458513 -0.8591571050556581 -18.25390625 -0.9140625 C-17.001707916259768 -0.9379605102539017 -15.74950958251953 -0.9618585205078034 -14.459365844726563 -0.986480712890625 C-13.291429901123045 -1.0033493041992188 -12.123493957519528 -1.0202178955078125 -10.920166015625 -1.03759765625 C-9.89520523071289 -1.054566955566429 -8.870244445800779 -1.0715362548828011 -7.8142242431640625 -1.089019775390625 C-5.064941885310134 -1.0020542471190197 -2.6465105490052423 -0.7515885881305167 0 0 Z " fill="#AEBFD0" transform="translate(73,436)"/>
<path d="M0 0 C0 0.9900000000000091 0 1.9800000000000182 0 3 C-2.609018498744092 4.304509249372018 -4.7351249061212 4.263169787355366 -7.65234375 4.4296875 C-8.232301025390598 4.465539550781273 -8.232301025390598 4.465539550781273 -11.167236328125 4.64697265625 C-11.789329833984368 4.684597167968775 -11.789329833984368 4.684597167968775 -14.9375 4.875 C-24.26603788686566 5.475999899439728 -33.36908764023485 6.383816175187064 -42.5673828125 8.028076171875 C-49.74659433736588 9.254751524931123 -56.72965274183349 9.29342208665247 -64 9 C-64.32999999999998 7.350000000000023 -64.66000000000003 5.699999999999989 -65 4 C-62.18700965089852 3.0623365502995057 -60.282958454614004 2.8392684487829456 -57.359375 2.75390625 C-56.45316406249998 2.721035156250025 -55.546953125000016 2.688164062499993 -54.61328125 2.654296875 C-52.72015808921236 2.5936032948110324 -50.82692443099387 2.5362544394387783 -48.93359375 2.482421875 C-44.9873681567276 2.334508185860386 -41.51435406156281 2.1494860558515825 -37.70703125 1.04296875 C-31.878731279410715 -0.5968163839803537 -25.960207080719044 -0.8275718602486677 -19.9375 -1.25 C-18.68388671874999 -1.3531249999999773 -17.430273437499977 -1.4562500000000114 -16.138671875 -1.5625 C-14.92630859374998 -1.650156250000009 -13.713945312500016 -1.7378125000000182 -12.46484375 -1.828125 C-11.916307373046891 -1.8688916015624955 -11.916307373046891 -1.8688916015624955 -9.140380859375 -2.0751953125 C-5.733730588343633 -1.9936242728142588 -3.1609111413683877 -1.2307130748862392 0 0 Z " fill="#AEBFD0" transform="translate(430,430)"/>
<path d="M0 0 C0.9271582031250034 0.03818847656248181 1.8543164062500068 0.07637695312502046 2.8095703125 0.11572265625 C3.3044091796874966 0.1398120117187318 3.3044091796874966 0.1398120117187318 5.80859375 0.26171875 C6.835654296874992 0.3073193359375068 7.862714843749984 0.35291992187501364 8.9208984375 0.39990234375 C15.32149461408602 0.7136958773067477 21.63871142445589 1.2861079408519913 27.99609375 2.07421875 C37.493167171008906 3.239260804962271 46.73381940970455 2.7374699271353506 56.24609375 1.94921875 C55.49609375 3.88671875 55.49609375 3.88671875 54.24609375 5.94921875 C44.33216523861449 10.141014026626067 28.47037554479661 6.533500994424685 18.054443359375 5.660888671875 C11.874450228925468 5.155894690539412 5.796568993531935 4.861743864563607 -0.404541015625 5.01171875 C-3.7945742034488887 4.921533932782609 -6.570799622763303 4.08098999523969 -9.75390625 2.94921875 C-8.75390625 0.94921875 -8.75390625 0.94921875 -6.988525390625 0.321044921875 C-4.58362390121809 -0.07911513148093263 -2.4356132407376663 -0.10197145345574654 0 0 Z " fill="#AEBFD0" transform="translate(226.75390625,474.05078125)"/>
<path d="M0 0 C0.16499999999999204 0.3299999999999841 0.16499999999999204 0.3299999999999841 1 2 C-12.439843117468413 6.199950974208889 -27.547392736323147 5.1396747218717 -41.5 5.0625 C-43.113279831703444 5.057465605518132 -44.726561217430344 5.05290619004694 -46.33984375 5.048828125 C-50.226602140494784 5.037997595784418 -54.113282952826886 5.02084460462595 -58 5 C-58 4.339999999999975 -58 3.680000000000007 -58 3 C-39.23210361275708 -1.540620093687778 -19.18095494668897 -0.12331969055736636 0 0 Z " fill="#AEBFD0" transform="translate(87,472)"/>
<path d="M0 0 C-0.3299999999999841 1.3199999999999932 -0.660000000000025 2.6399999999999864 -1 4 C-10.240000000000009 4 -19.480000000000018 4 -29 4 C-28.670000000000016 3.009999999999991 -28.339999999999975 2.019999999999982 -28 1 C-18.657417043686735 -0.12998843532079718 -9.391469026280959 -0.09908935666652496 0 0 Z " fill="#AEBFD0" transform="translate(336,470)"/>
</svg>
